<?xml version="1.0" standalone="no"?>
<!DOCTYPE svg PUBLIC "-//W3C//DTD SVG 20010904//EN"
 "http://www.w3.org/TR/2001/REC-SVG-20010904/DTD/svg10.dtd">
<svg version="1.0" xmlns="http://www.w3.org/2000/svg"
 width="1170.000000pt" height="1106.000000pt" viewBox="0 0 1170.000000 1106.000000"
 preserveAspectRatio="xMidYMid meet">

<g transform="translate(0.000000,1106.000000) scale(0.100000,-0.100000)"
fill="#000000" stroke="none">
<path d="M0 5530 l0 -5530 5850 0 5850 0 0 5530 0 5530 -5850 0 -5850 0 0
-5530z m3179 3035 c380 -47 650 -153 1076 -422 105 -66 246 -155 315 -198 69
-43 152 -95 185 -116 64 -41 282 -178 472 -298 65 -41 170 -107 233 -147 63
-41 195 -124 292 -186 98 -62 261 -166 362 -231 l185 -118 468 282 c589 355
553 335 563 319 6 -10 -11 -27 -58 -60 -107 -75 -440 -300 -664 -448 -114 -75
-207 -142 -207 -147 -1 -6 63 -51 142 -101 78 -50 221 -142 317 -204 641 -414
1017 -658 1165 -755 222 -145 277 -178 377 -224 377 -173 810 -195 1216 -62
375 123 692 378 861 693 148 274 186 612 105 927 -120 461 -517 854 -1043
1032 -454 154 -951 125 -1396 -80 -84 -39 -115 -45 -115 -22 0 16 316 167 419
201 52 17 151 43 220 58 117 24 144 26 366 27 251 0 305 -6 487 -51 513 -128
943 -456 1158 -885 53 -104 115 -293 134 -409 17 -99 23 -356 11 -445 -84
-634 -565 -1153 -1250 -1350 -507 -146 -1073 -73 -1520 197 -85 51 -1390 873
-1819 1145 -82 52 -156 93 -165 90 -9 -2 -149 -92 -311 -199 -162 -107 -356
-234 -430 -283 -482 -315 -865 -565 -990 -645 -80 -51 -194 -125 -255 -165
-327 -212 -556 -308 -875 -367 -158 -29 -532 -32 -691 -5 -661 111 -1204 493
-1469 1032 -79 160 -117 270 -151 435 -21 102 -24 141 -24 340 1 195 4 239 23
330 112 516 415 933 887 1217 130 78 176 101 315 156 341 135 727 185 1079
142z m4752 -1245 c43 -12 77 -42 85 -75 6 -24 -21 -157 -96 -485 -84 -365 -98
-520 -46 -520 23 0 100 93 138 167 68 130 236 577 298 791 20 67 24 75 57 89
41 17 121 10 129 -11 3 -7 -12 -68 -31 -137 -71 -246 -118 -629 -97 -798 6
-46 15 -88 20 -93 31 -31 111 87 203 299 153 350 225 658 174 736 l-17 27 29
0 c36 0 69 -22 89 -62 22 -42 29 -164 15 -240 -50 -255 -239 -640 -379 -771
-48 -44 -55 -47 -104 -47 -74 0 -137 33 -163 85 -17 34 -21 67 -25 220 -5 159
-7 176 -18 150 -91 -208 -138 -297 -204 -382 -47 -61 -85 -78 -155 -67 -107
15 -133 52 -133 189 0 131 31 306 114 645 47 192 54 240 34 240 -25 0 -109
-103 -165 -203 -74 -131 -102 -210 -86 -236 16 -26 -1 -39 -60 -47 -70 -10
-97 11 -97 76 0 143 214 429 344 461 46 10 106 10 147 -1z m2249 -165 c17 -9
30 -21 30 -29 0 -7 -36 -112 -80 -232 -44 -120 -80 -222 -80 -226 0 -19 17 -4
44 38 16 26 64 82 105 124 87 89 119 102 193 78 52 -18 55 -36 7 -52 -36 -13
-116 -70 -199 -145 l-45 -40 28 -1 c65 -1 78 -28 97 -220 6 -58 18 -115 26
-127 25 -39 18 -44 -48 -41 -61 3 -64 4 -80 38 -9 19 -24 89 -32 154 -9 66
-20 124 -25 129 -15 15 -35 2 -83 -55 -38 -45 -49 -67 -67 -140 -11 -47 -21
-96 -21 -107 0 -18 -6 -21 -48 -21 -66 0 -85 21 -81 89 2 28 2 51 -1 51 -3 0
-20 -25 -38 -55 -38 -63 -73 -85 -136 -85 -97 0 -126 27 -126 118 0 80 24 186
78 340 21 62 36 114 33 116 -3 1 -29 1 -58 -2 l-51 -4 -33 -76 c-40 -91 -107
-186 -148 -206 -16 -9 -42 -17 -58 -18 -26 -2 -35 -11 -67 -74 -44 -85 -120
-167 -172 -184 -45 -15 -109 -7 -142 17 -118 88 -79 388 70 536 101 101 237
101 288 1 19 -39 25 -149 11 -214 -6 -29 -9 -55 -7 -58 11 -11 68 23 102 61
20 22 57 82 81 133 35 75 42 97 34 113 -14 25 -14 60 0 100 10 28 15 31 51 31
40 0 41 0 35 -32 -3 -18 -8 -41 -12 -51 -7 -16 -2 -17 73 -11 80 7 81 7 111
-24 42 -42 40 -65 -19 -249 -27 -86 -54 -181 -60 -212 -10 -57 -2 -112 17
-118 46 -16 163 198 252 457 55 162 110 319 131 376 8 20 17 24 50 24 23 0 54
-7 70 -15z m-5289 -2511 c89 -27 150 -63 214 -128 91 -92 145 -208 145 -313
l0 -42 -112 -3 c-62 -2 -119 -1 -125 1 -7 2 -13 16 -13 31 0 39 -25 93 -62
135 -94 108 -271 112 -373 10 -72 -72 -75 -90 -75 -480 0 -188 -3 -484 -7
-659 l-6 -317 -121 3 -121 3 3 660 c2 392 8 682 14 715 32 175 187 335 369
384 73 20 203 20 270 0z m3677 -346 l-3 -123 -375 0 c-366 0 -375 0 -382 -20
-10 -33 -9 -768 2 -826 21 -108 95 -184 205 -212 l49 -12 -1 -118 c0 -65 -3
-120 -5 -122 -13 -13 -144 21 -218 57 -151 73 -254 209 -280 368 -6 39 -10
281 -10 598 l0 532 510 0 511 0 -3 -122z m-6160 -15 l3 -123 -126 0 -125 0 0
118 c0 65 3 122 7 126 4 3 59 5 122 4 l116 -3 3 -122z m4954 6 c2 -66 1 -123
-1 -125 -2 -2 -58 -4 -123 -4 l-118 0 0 124 0 125 119 0 120 1 3 -121z m-1142
-387 c87 -31 138 -63 197 -122 93 -94 141 -201 168 -374 18 -114 42 -177 88
-224 123 -129 339 -95 418 65 23 47 24 55 27 351 l3 302 28 0 c15 0 69 -3 120
-7 l92 -6 -3 -331 -3 -331 -43 -87 c-52 -105 -137 -190 -234 -237 -82 -39
-135 -50 -229 -51 -250 -1 -457 184 -505 451 -29 159 -44 212 -74 260 -87 135
-273 159 -387 48 -82 -79 -83 -85 -83 -427 l0 -302 -130 0 -130 0 0 278 c0
317 7 378 55 480 40 85 130 181 210 226 119 66 290 82 415 38z m-2614 4 c161
-43 291 -166 349 -332 24 -67 25 -76 25 -380 l0 -312 -27 -3 c-16 -2 -71 -4
-123 -4 l-95 0 -5 310 -5 310 -28 47 c-86 147 -287 170 -403 46 -50 -52 -72
-107 -94 -232 -24 -137 -47 -203 -99 -282 -96 -149 -239 -224 -426 -224 -153
0 -260 43 -363 146 -73 73 -125 174 -141 275 -6 35 -11 189 -11 342 l0 277
130 0 130 0 0 -292 c0 -337 4 -359 78 -433 77 -78 189 -97 287 -49 30 15 63
36 74 48 31 33 71 121 82 179 5 28 16 87 24 131 40 218 184 381 385 435 53 14
198 13 256 -3z m1644 -516 l0 -511 -122 3 -123 3 -3 383 -2 382 -125 0 -125 0
0 125 0 125 250 0 250 0 0 -510z m3362 208 c3 -292 4 -305 26 -349 80 -161
286 -196 411 -71 77 77 81 98 81 434 l0 288 125 0 125 0 0 -298 c0 -264 -2
-308 -20 -375 -34 -137 -133 -257 -263 -322 -38 -19 -76 -35 -83 -35 -11 0
-14 -27 -14 -134 0 -81 -4 -137 -10 -141 -6 -4 -62 -3 -125 1 l-115 7 0 133
c0 110 -3 134 -14 134 -30 0 -172 82 -214 123 -59 58 -106 131 -133 208 -22
60 -23 82 -27 367 -2 167 -1 310 2 317 4 12 30 15 125 15 l120 0 3 -302z"/>
<path d="M2774 8239 c-449 -32 -879 -229 -1179 -541 -165 -170 -276 -349 -344
-555 -50 -148 -62 -217 -68 -403 -9 -272 27 -448 136 -675 75 -154 160 -273
291 -406 261 -263 587 -431 982 -505 112 -21 447 -30 563 -15 195 26 422 94
585 176 41 21 228 130 415 243 291 175 371 224 493 297 9 6 99 60 199 120 101
61 232 139 292 175 461 274 821 496 818 505 -2 5 -73 54 -158 108 -299 189
-516 326 -664 419 -255 161 -678 429 -715 453 -313 202 -587 371 -675 415
-288 146 -632 213 -971 189z m193 -760 c42 -26 42 -30 -16 -184 -54 -145 -161
-526 -161 -573 0 -20 5 -22 50 -22 59 0 77 -20 59 -67 -19 -49 -38 -63 -90
-63 -26 0 -51 -4 -54 -10 -13 -20 -56 -265 -62 -351 l-6 -89 -45 0 c-77 0
-122 40 -137 122 -5 29 10 172 31 291 l7 37 -140 0 -139 0 -56 -67 c-108 -129
-294 -301 -367 -338 -43 -22 -65 -15 -140 41 -75 57 -79 84 -10 84 34 0 126
49 207 110 93 70 187 158 179 166 -4 4 -33 6 -66 5 -51 -1 -62 2 -71 19 -8 15
-7 27 4 49 30 58 39 61 154 61 l106 0 44 48 c52 56 249 298 416 514 202 259
182 238 228 238 24 0 55 -9 75 -21z m362 -173 c57 -30 57 -29 -15 -233 -144
-407 -211 -631 -221 -740 -5 -56 -4 -63 12 -63 39 0 113 106 213 305 27 55 55
119 61 142 32 117 184 546 207 580 25 40 134 27 172 -20 10 -11 -7 -68 -79
-273 -109 -311 -139 -406 -173 -543 -51 -204 -25 -248 68 -117 55 78 148 251
181 339 36 97 57 136 109 199 112 137 249 167 342 75 34 -34 44 -53 54 -102
17 -81 6 -189 -31 -300 -81 -244 -221 -360 -378 -315 -70 20 -115 88 -128 191
l-8 64 -38 -67 c-50 -90 -110 -164 -149 -184 -55 -29 -175 -7 -194 36 -4 8
-10 56 -13 105 l-6 90 -31 -55 c-46 -80 -109 -157 -146 -176 -48 -25 -143 -14
-177 20 -62 63 -33 271 91 641 66 197 137 386 150 402 14 17 92 16 127 -1z"/>
<path d="M2675 7123 c-38 -57 -223 -315 -272 -380 l-25 -33 99 0 100 0 18 68
c10 37 42 141 71 232 29 90 52 166 50 167 -2 2 -20 -23 -41 -54z"/>
<path d="M4041 6832 c-112 -117 -202 -433 -147 -516 40 -62 113 -9 184 136 47
93 92 255 92 327 0 96 -63 122 -129 53z"/>
<path d="M9115 6798 c-61 -48 -121 -175 -146 -310 -37 -200 76 -209 165 -13
38 81 38 90 15 129 -27 46 -20 93 21 140 27 30 28 34 14 54 -19 28 -34 28 -69
0z"/>
</g>
</svg>
